HIERARCHY
ROOT Hips
{
	OFFSET 0.000000 0.000000 0.000000 
	CHANNELS 6 Xposition Yposition Zposition Zrotation Yrotation Xrotation
	JOINT LeftUpLeg
	{
		OFFSET 1.363060 -1.794630 0.839290 
		CHANNELS 3 Zrotation Yrotation Xrotation
		JOINT LeftLeg
		{
			OFFSET 2.448110 -6.726130 0.000000 
			CHANNELS 3 Zrotation Yrotation Xrotation
			JOINT LeftFoot
			{
				OFFSET 2.562200 -7.039590 0.000000 
				CHANNELS 3 Zrotation Yrotation Xrotation
				JOINT LeftToeBase
				{
					OFFSET 0.157640 -0.433110 2.322550 
					CHANNELS 3 Zrotation Yrotation Xrotation
					End Site
					{
						OFFSET 0.000000 0.000000 0.000000 
					}
				}
			}
		}
	}
	JOINT RightUpLeg
	{
		OFFSET -1.305520 -1.794630 0.839290 
		CHANNELS 3 Zrotation Yrotation Xrotation
		JOINT RightLeg
		{
			OFFSET -2.542530 -6.985550 0.000000 
			CHANNELS 3 Zrotation Yrotation Xrotation
			JOINT RightFoot
			{
				OFFSET -2.568260 -7.056230 0.000000 
				CHANNELS 3 Zrotation Yrotation Xrotation
				JOINT RightToeBase
				{
					OFFSET -0.164730 -0.452590 2.363150 
					CHANNELS 3 Zrotation Yrotation Xrotation
					End Site
					{
						OFFSET 0.000000 0.000000 0.000000 
					}
				}
			}
		}
	}
	JOINT Spine
	{
		OFFSET 0.028270 2.035590 -0.193380 
		CHANNELS 3 Zrotation Yrotation Xrotation
		JOINT Spine1
		{
			OFFSET 0.056720 2.048850 -0.042750 
			CHANNELS 3 Zrotation Yrotation Xrotation
			JOINT Neck1
			{
				OFFSET -0.054170 1.746240 0.172020 
				CHANNELS 3 Zrotation Yrotation Xrotation
				JOINT Head
				{
					OFFSET 0.104070 1.761360 -0.123970 
					CHANNELS 3 Zrotation Yrotation Xrotation
					End Site
					{
						OFFSET 0.000000 0.000000 0.000000 
					}
				}
			}
			JOINT LeftArm
			{
				OFFSET 3.362410 1.200890 -0.311210 
				CHANNELS 3 Zrotation Yrotation Xrotation
				JOINT LeftForeArm
				{
					OFFSET 4.983000 -0.000000 -0.000000 
					CHANNELS 3 Zrotation Yrotation Xrotation
					JOINT LeftHand
					{
						OFFSET 3.483560 -0.000000 -0.000000 
						CHANNELS 3 Zrotation Yrotation Xrotation
						JOINT LeftHandIndex1
						{
							OFFSET 0.715260 -0.000000 -0.000000 
							CHANNELS 3 Zrotation Yrotation Xrotation
							End Site
							{
								OFFSET 0.000000 0.000000 0.000000 
							}
						}
					}
				}
			}
			JOINT RightArm
			{
				OFFSET -3.136600 1.374050 -0.404650 
				CHANNELS 3 Zrotation Yrotation Xrotation
				JOINT RightForeArm
				{
					OFFSET -5.241900 -0.000000 -0.000000 
					CHANNELS 3 Zrotation Yrotation Xrotation
					JOINT RightHand
					{
						OFFSET -3.444170 -0.000000 -0.000000 
						CHANNELS 3 Zrotation Yrotation Xrotation
						JOINT RightHandIndex1
						{
							OFFSET -0.622530 -0.000000 -0.000000 
							CHANNELS 3 Zrotation Yrotation Xrotation
							End Site
							{
								OFFSET 0.000000 0.000000 0.000000 
							}
						}
					}
				}
			}
		}
	}
}
MOTION
Frames: 7
Frame Time: 0.041667
-31.166046 17.457621 1.278214 89.412986 84.600921 84.288976 -24.010630 7.544394 10.789301 -1.862887 0.784997 0.931929 -0.562637 8.129739 -9.340350 0.252600 -3.233700 -8.930100 12.927780 -15.327878 18.426299 -0.413376 -3.051202 3.949160 -0.607219 0.182435 -16.831950 -0.043900 -1.352600 3.719600 0.057447 2.451092 -2.126947 -1.235789 1.160458 2.828672 4.248949 4.760199 10.956309 -1.546500 2.816700 11.930100 -92.948189 -1.063233 35.924421 10.401790 -19.551584 -2.046498 -0.106406 0.762627 18.238311 -7.125000 0.000000 0.000000 90.718453 -2.889711 38.543642 -17.876824 32.444960 -4.619689 0.247321 -2.748374 6.459181 7.125000 0.000000 0.000000 
-31.167071 17.457109 1.279341 89.307084 84.561781 84.177609 -24.046600 7.568148 10.768123 -1.861547 0.790944 0.944675 -0.553247 8.057867 -9.347828 0.257900 -3.267400 -9.024300 12.883521 -15.282425 18.454760 -0.414864 -3.035391 3.917123 -0.608146 0.202296 -16.824827 -0.043500 -1.346300 3.702300 0.066764 2.465700 -2.160989 -1.152566 1.172953 2.660816 4.221809 4.776626 10.993546 -1.565300 2.825500 11.966800 -92.896762 -0.811061 36.395112 10.543810 -19.759387 -2.092578 -0.083386 0.749265 17.893917 -7.125000 0.000000 0.000000 90.699037 -3.021336 38.537732 -17.940125 32.490090 -4.645278 0.241953 -2.748784 6.471559 7.125000 0.000000 0.000000 
-31.168096 17.458236 1.280673 89.506846 84.539123 84.373601 -24.061279 7.563320 10.770977 -1.860305 0.792039 0.945944 -0.538354 7.948557 -9.395901 0.255200 -3.250600 -8.977200 12.872347 -15.272015 18.475508 -0.415377 -3.035007 3.918083 -0.609598 0.235801 -16.824164 -0.053700 -1.495800 4.114100 0.065401 2.455656 -2.143054 -1.145136 1.165652 2.716756 4.152131 4.737748 10.965657 -1.614900 2.800800 11.921200 -92.952408 -0.904430 36.185803 10.447175 -19.622880 -2.060869 -0.086149 0.750346 18.309623 -7.125000 0.000000 0.000000 90.688452 -2.945405 38.585095 -17.926406 32.480065 -4.639323 0.238241 -2.746176 6.475513 7.125000 0.000000 0.000000 
-31.166354 17.457826 1.280878 89.207559 84.461310 84.099852 -24.168367 7.540028 10.772444 -1.863409 0.783351 0.913774 -0.535479 7.950241 -9.474991 0.244300 -3.181000 -8.783000 12.763929 -15.247179 18.458871 -0.416624 -3.034723 3.930185 -0.613627 0.247835 -16.867848 -0.063800 -1.629400 4.482600 0.058626 2.470322 -2.143590 -1.133063 1.173943 2.719744 4.069539 4.794638 10.942209 -1.677600 2.823400 11.901700 -92.951502 -0.861967 36.049483 10.441777 -19.621411 -2.060334 -0.132129 0.771746 18.334397 -7.125000 0.000000 0.000000 90.681946 -2.948881 38.630436 -17.955084 32.507033 -4.648954 0.242249 -2.747047 6.436682 7.125000 0.000000 0.000000 
-31.166251 17.460592 1.281800 89.416329 84.394034 84.206663 -24.236835 7.585656 10.867025 -1.862695 0.784336 0.913472 -0.536306 7.960226 -9.446852 0.229300 -3.082200 -8.507600 12.585999 -15.381324 18.561556 -0.413220 -3.020702 3.892630 -0.611289 0.311862 -16.791248 -0.061100 -1.595200 4.388200 0.054905 2.466527 -2.132663 -1.110966 1.172824 2.692656 4.037606 4.796150 10.914975 -1.700900 2.820800 11.870400 -92.936800 -0.844090 36.231698 10.474669 -19.669748 -2.070407 -0.123661 0.760410 18.090415 -7.125000 0.000000 0.000000 90.702625 -2.948281 38.609367 -17.946494 32.497262 -4.647525 0.238787 -2.748582 6.460623 7.125000 0.000000 0.000000 
-31.166046 17.459773 1.280161 89.824762 84.431866 84.595327 -24.206469 7.557152 10.894179 -1.863449 0.784974 0.917878 -0.543597 8.010414 -9.413677 0.248900 -3.210200 -8.864400 12.536730 -15.579728 18.519883 -0.412391 -3.020597 3.875172 -0.605200 0.428139 -16.642264 -0.053700 -1.495200 4.112400 0.059785 2.446435 -2.131311 -1.136913 1.162741 2.698268 4.058432 4.851945 10.950708 -1.684500 2.850800 11.907100 -92.979358 -0.915713 36.050441 10.378568 -19.528255 -2.039275 -0.108585 0.765671 18.222235 -7.125000 0.000000 0.000000 90.719567 -2.924483 38.556103 -17.877739 32.424280 -4.620494 0.232560 -2.744745 6.537543 7.125000 0.000000 0.000000 
-31.166149 17.459158 1.278316 90.286993 84.407859 85.094809 -24.233358 7.548926 10.831242 -1.863919 0.796611 0.940443 -0.546511 8.022713 -9.352493 0.289500 -3.460100 -9.562500 12.451747 -15.696844 18.456923 -0.412246 -3.034840 3.912426 -0.606226 0.501399 -16.614812 -0.057700 -1.550700 4.265400 0.059307 2.419634 -2.135471 -1.132843 1.148048 2.716681 4.120728 4.873680 11.005685 -1.635900 2.867000 11.946900 -93.024815 -0.933663 35.968970 10.376968 -19.524360 -2.038770 -0.135594 0.775775 18.232366 -7.125000 0.000000 0.000000 90.691758 -2.914104 38.591078 -17.860594 32.403660 -4.612022 0.227283 -2.739727 6.550223 7.125000 0.000000 0.000000 
